<?xml version="1.0" encoding="UTF-8" standalone="no"?>
<svg
   viewBox="0 0 63.224997 63.224997"
   version="1.1"
   id="svg448"
   sodipodi:docname="24h_2026.svg"
   width="63.224998"
   height="63.224998"
   inkscape:version="1.2.2 (b0a8486541, 2022-12-01)"
   inkscape:export-filename="24h_2026.png"
   inkscape:export-xdpi="583.06049"
   inkscape:export-ydpi="583.06049"
   xmlns:inkscape="http://www.inkscape.org/namespaces/inkscape"
   xmlns:sodipodi="http://sodipodi.sourceforge.net/DTD/sodipodi-0.dtd"
   xmlns="http://www.w3.org/2000/svg"
   xmlns:svg="http://www.w3.org/2000/svg">
  <sodipodi:namedview
     id="namedview450"
     pagecolor="#ffffff"
     bordercolor="#000000"
     borderopacity="0.25"
     inkscape:showpageshadow="2"
     inkscape:pageopacity="0.0"
     inkscape:pagecheckerboard="0"
     inkscape:deskcolor="#d1d1d1"
     showgrid="false"
     inkscape:zoom="6.9216329"
     inkscape:cx="-3.0339662"
     inkscape:cy="17.120238"
     inkscape:window-width="1920"
     inkscape:window-height="1043"
     inkscape:window-x="0"
     inkscape:window-y="0"
     inkscape:window-maximized="1"
     inkscape:current-layer="svg448" />
  <g
     filter="url(#a)"
     transform="translate(-25.884451,-9.6659012)"
     id="g429">
    <path
       d="m 34.67,47.8163 h 9.5512 c 0.3867,0 0.5862,0.1995 0.5994,0.5994 v 2.96 c -0.0132,0.399 -0.2127,0.5994 -0.5994,0.5994 H 30.2947 c -0.3999,-0.0123 -0.5994,-0.2117 -0.5994,-0.5994 v -0.5814 c 0.0114,-2.5298 0.2543,-4.3516 0.7261,-5.4653 0.5682,-1.4407 1.5911,-2.839 3.0687,-4.1947 q 0.8523,-0.78135 2.5611,-2.1243 c 2.2982,-1.8397 3.6426,-3.1358 4.0302,-3.8855 0.2666,-0.5323 0.3999,-1.09 0.3999,-1.6705 0,-1.9125 -1.022,-2.8693 -3.0688,-2.8693 -0.8953,0 -1.6279,0.242 -2.198,0.7261 -0.5077,0.4358 -0.9917,1.1619 -1.4521,2.1782 -0.2543,0.5691 -0.4784,0.8537 -0.6712,0.8537 -0.0851,0 -0.1816,-0.018 -0.2903,-0.0549 L 30.151,33.2895 c -0.2553,-0.0964 -0.3829,-0.2486 -0.3829,-0.4547 0,-0.6533 0.4415,-1.6705 1.3264,-3.0508 1.4285,-2.2151 3.6445,-3.3231 6.6461,-3.3231 3.0016,0 5.0351,1.0655 6.2462,3.1964 0.6532,1.1496 0.9803,2.4334 0.9803,3.8496 0,1.2347 -0.2779,2.3966 -0.8347,3.4866 -0.6902,1.3434 -2.4098,3.0631 -5.1571,5.1562 -1.9731,1.5258 -3.1775,2.6452 -3.6124,3.3589 -0.4122,0.7025 -0.6428,1.4711 -0.6901,2.3059 z"
       fill="#ffffff"
       id="path423" />
    <path
       d="m 55.9148,46.6364 h -9.6421 c -0.4008,0.0123 -0.5994,-0.1871 -0.5994,-0.5993 v -3.1416 c 0,-0.2779 0.0785,-0.5445 0.2364,-0.7998 l 9.642,-14.8719 c 0.1815,-0.2902 0.4774,-0.4415 0.8896,-0.4538 h 3.3051 c 0.3999,0.0123 0.5994,0.2118 0.5994,0.5994 v 15.5072 h 2.2699 c 0.3866,0.0123 0.5871,0.2118 0.5984,0.5994 v 2.5601 c -0.0113,0.4122 -0.2118,0.6117 -0.5984,0.5994 h -2.2699 v 4.7392 c 0.0123,0.3876 -0.1872,0.5871 -0.5994,0.5994 H 56.533 c -0.4244,0 -0.6296,-0.1995 -0.6173,-0.5994 v -4.7392 z m -5.7925,-3.7588 h 5.974 v -9.66 z"
       fill="#ffffff"
       id="path425" />
    <path
       d="m 82.83,49.0151 1.5978,0.5445 c 0.2543,0.0851 0.3753,0.26 0.363,0.5266 v 1.3623 c 0,0.3508 -0.1759,0.5266 -0.5275,0.5266 h -5.5192 c -0.2298,0 -0.3876,-0.0236 -0.4718,-0.0728 -0.1087,-0.0605 -0.1645,-0.2486 -0.1645,-0.5625 V 39.8817 c 0,-0.9322 -0.0964,-1.628 -0.2902,-2.0884 -0.3025,-0.6901 -0.9019,-1.0342 -1.7972,-1.0342 -0.9577,0 -2.0108,0.5086 -3.1604,1.5249 v 10.732 l 1.5977,0.5446 c 0.2552,0.0851 0.3753,0.26 0.363,0.5266 v 1.3623 c 0,0.3507 -0.1758,0.5266 -0.5266,0.5266 h -7.5905 c -0.3508,0 -0.5266,-0.1759 -0.5266,-0.5266 v -1.3623 c -0.0113,-0.2666 0.1087,-0.4415 0.363,-0.5266 L 68.1387,49.016 V 30.2576 L 66.54,29.7131 c -0.2543,-0.0842 -0.3743,-0.26 -0.363,-0.5266 v -1.4162 c -0.0113,-0.3025 0.1087,-0.4784 0.363,-0.5266 l 5.575,-1.1798 c 0.1456,-0.036 0.2666,-0.0549 0.364,-0.0549 0.2543,0 0.381,0.1579 0.381,0.4718 v 8.6437 c 1.5495,-1.4408 3.2502,-2.1612 5.1022,-2.1612 1.9485,0 3.3231,0.6722 4.1219,2.0156 0.4964,0.8234 0.745,2.1006 0.745,3.8317 V 49.016 Z"
       fill="#ffffff"
       id="path427" />
  </g>
  <defs
     id="defs446">
    <filter
       id="a"
       x="25.884399"
       y="24.2304"
       width="63.225101"
       height="34.096001"
       filterUnits="userSpaceOnUse"
       color-interpolation-filters="sRGB">
      <feFlood
         flood-opacity="0"
         result="BackgroundImageFix"
         id="feFlood431" />
      <feColorMatrix
         in="SourceAlpha"
         type="matrix"
         values="0 0 0 0 0 0 0 0 0 0 0 0 0 0 0 0 0 0 127 0"
         result="hardAlpha"
         id="feColorMatrix433" />
      <feOffset
         dx=".253581"
         dy="2.28582"
         id="feOffset435" />
      <feGaussianBlur
         stdDeviation="2.03223"
         id="feGaussianBlur437" />
      <feColorMatrix
         type="matrix"
         values="0 0 0 0 0.266667 0 0 0 0 0.0509804 0 0 0 0 0.121569 0 0 0 0.7 0"
         id="feColorMatrix439" />
      <feBlend
         mode="normal"
         in2="BackgroundImageFix"
         result="effect1_dropShadow_4400_87209"
         id="feBlend441" />
      <feBlend
         mode="normal"
         in="SourceGraphic"
         in2="effect1_dropShadow_4400_87209"
         result="shape"
         id="feBlend443" />
    </filter>
  </defs>
</svg>
