<?xml version="1.0" encoding="UTF-8" standalone="no"?>
<svg
   width="299pt"
   height="299pt"
   viewBox="0 0 299 299"
   version="1.1"
   id="svg5"
   sodipodi:docname="Atreseries_2020.svg"
   inkscape:export-filename="Atreseries_2020.png"
   inkscape:export-xdpi="92.468231"
   inkscape:export-ydpi="92.468231"
   inkscape:version="1.4.3 (1:1.4.3+202512261034+0d15f75042)"
   xmlns:inkscape="http://www.inkscape.org/namespaces/inkscape"
   xmlns:sodipodi="http://sodipodi.sourceforge.net/DTD/sodipodi-0.dtd"
   xmlns="http://www.w3.org/2000/svg"
   xmlns:svg="http://www.w3.org/2000/svg">
  <defs
     id="defs5" />
  <sodipodi:namedview
     id="namedview5"
     pagecolor="#ffffff"
     bordercolor="#000000"
     borderopacity="0.25"
     inkscape:showpageshadow="2"
     inkscape:pageopacity="0.0"
     inkscape:pagecheckerboard="0"
     inkscape:deskcolor="#d1d1d1"
     inkscape:document-units="pt"
     inkscape:zoom="0.61458139"
     inkscape:cx="116.33935"
     inkscape:cy="228.61089"
     inkscape:window-width="1386"
     inkscape:window-height="836"
     inkscape:window-x="0"
     inkscape:window-y="0"
     inkscape:window-maximized="1"
     inkscape:current-layer="svg5" />
  <g
     id="surface1"
     transform="translate(0.05078,47.322265)">
    <path
       style="fill:#f54a1c;fill-opacity:1;fill-rule:nonzero;stroke:none"
       d="m 102.84375,6.046875 c 5.92188,-3.785156 13.01563,-5.292969 19.94922,-5.691406 3.79687,0.234375 7.60937,0.179687 11.41406,0 8.59766,0.554687 17.61328,2.96875 23.90234,9.195312 5.82032,5.722657 8.30079,13.984375 8.82032,21.964844 0.30859,5.65625 0.10156,11.324219 0.16406,16.984375 -0.0742,7.160156 0.46094,14.535156 -1.83203,21.441406 -1.39453,4.417969 -4.17188,8.554688 -8.27735,10.847656 -2.07421,1.277344 -4.48046,1.769532 -6.78125,2.472657 4.40235,0.648437 8.6875,2.703125 11.66016,6.066406 2.34766,2.652344 3.73047,6.027344 4.45313,9.460937 0.91796,4.339848 0.75,8.800778 0.77734,13.207028 -0.008,8.49219 0.0117,16.98438 -0.0156,25.47266 -0.0391,8.15625 -1.60937,16.69141 -6.55078,23.37109 -4.30468,5.92578 -11.16015,9.53907 -18.24218,10.92188 -6.26954,1.32812 -12.70704,1.02734 -19.0625,1.00781 -8.3125,-0.23437 -17.01563,-2.24609 -23.406254,-7.86328 -6.023437,-5.19141 -8.984375,-13.05078 -9.945312,-20.78125 7.160156,-7.06641 14.121096,-14.33984 21.374996,-21.30078 0.17969,5.5664 -0.2539,11.15625 0.41797,16.69531 0.58203,4.37109 2.28907,8.95703 6.02344,11.57031 3.89844,2.76953 8.92969,2.875 13.51562,2.56641 3.84766,-0.26172 7.7461,-1.875 10.14844,-4.99219 3,-3.85547 3.73047,-8.91797 3.85547,-13.66797 0.0117,-8.99218 0,-17.98437 0.008,-26.97656 0.004,-3.88281 -0.83593,-8.05078 -3.58593,-10.960936 -2.78125,-2.945313 -6.98438,-3.964844 -10.90625,-4.054688 -6.63282,-0.02734 -13.26172,0.03125 -19.89844,-0.02344 0.0469,-6.269531 -0.0508,-12.539063 0.0547,-18.808594 5.11328,0.0625 10.22656,0.0078 15.34375,0.03125 4.86328,0.03125 10.23437,-0.28125 14.13671,-3.546875 3.63282,-3.066406 4.69532,-8.078125 4.83594,-12.617188 0.0352,-6.847656 0.0273,-13.703124 0,-20.554687 -0.17187,-5.433594 -1.32031,-11.519531 -5.75,-15.140625 -3.99219,-3.269531 -9.4375,-3.285156 -14.32031,-3.042969 -3.84766,0.214844 -7.78516,1.710938 -10.26172,4.773438 -2.9375,3.605469 -3.79687,8.402343 -3.97656,12.9375 -0.13281,5.636719 0.0273,11.285156 -0.0859,16.921875 -7.125,-0.0039 -14.249999,0.04297 -21.374999,-0.02344 0.03516,-5.804687 0.0039,-11.609375 0.01563,-17.414062 -0.01953,-5.9375 0.652344,-11.964844 2.851563,-17.511719 2.066406,-5.269531 5.742187,-9.929687 10.550776,-12.9375 z m 0,0"
       id="path1" />
    <path
       style="fill:#f54a1c;fill-opacity:1;fill-rule:nonzero;stroke:none"
       d="m 295.67578,75 c 1.11328,0.960938 2.20703,1.953125 3.22266,3.023438 v 0.140624 c -1.19922,0.882813 -2.23828,1.960938 -3.26172,3.035157 -27.59375,27.695311 -55.21485,55.367191 -82.80469,83.066401 -13.17187,13.25 -26.44531,26.40625 -39.53906,39.73438 h -0.36328 c -0.8711,-1.03516 -1.84375,-1.97656 -2.70313,-3.01172 1.01563,-1.27734 2.26172,-2.33984 3.39453,-3.50781 C 214.28516,156.62891 255.0625,115.89453 295.67578,75 Z m 0,0"
       id="path2" />
    <path
       style="fill:#002338;fill-opacity:1;fill-rule:nonzero;stroke:none"
       d="m 189.69531,12.085938 c 5.72656,-6.691407 14.39453,-10.0625 22.92969,-11.246094 4.75,-0.9140628 9.57812,-0.09375 14.36328,-0.480469 9.66016,0.503906 19.80469,3.300781 26.78906,10.367187 6.08203,6.074219 8.65235,14.859376 8.69532,23.292969 0.004,9.210938 -0.008,18.421875 0.004,27.628907 -7.35937,0.02734 -14.71875,0.03125 -22.07812,0 -0.0547,-8.011719 0.0273,-16.035157 -0.0391,-24.046876 -0.13281,-4.730468 -1.17968,-9.832031 -4.64062,-13.292968 -3.44531,-3.394532 -8.50391,-4.355469 -13.17188,-4.355469 -4.68359,0.0078 -9.79296,0.828125 -13.32812,4.171875 -3.42578,3.195312 -4.60547,8.050781 -4.82813,12.574219 -0.125,4.605469 -0.0391,9.210937 -0.0547,13.816406 -0.0352,4.128906 0.72656,8.515625 3.46093,11.757813 2.96094,3.515624 7.07032,5.75 10.98829,8.015624 6.85546,3.78125 13.71875,7.546876 20.5664,11.339844 5.78125,3.359375 11.61328,6.957032 16.06641,12.035156 l 0.0508,0.324219 c -5.0625,5.257813 -10.30469,10.332029 -15.40625,15.546879 -0.36328,0.39453 -0.80078,0.69531 -1.25781,0.97656 -1.89844,-3.86719 -5.50782,-6.46094 -9.07032,-8.67188 -9.6914,-5.699215 -19.75,-10.753902 -29.3164,-16.675778 -5.3711,-3.453124 -10.69922,-7.394531 -14.10547,-12.917968 -3.04688,-4.8125 -4.10938,-10.601563 -4.09375,-16.226563 0,-7.34375 -0.0234,-14.691406 0.0156,-22.035156 0.0898,-7.820313 2.23047,-15.914063 7.46094,-21.898437 z m 0,0"
       id="path3" />
    <path
       style="fill:#002338;fill-opacity:1;fill-rule:nonzero;stroke:none"
       d="m 33.394531,2.09375 c 9.285157,0.019531 18.570313,-0.015625 27.859375,0.015625 8.472656,42.289063 17,84.574219 25.457032,126.871095 0.429687,1.00781 -0.597657,1.58984 -1.164063,2.24609 -5.84375,5.72656 -11.492187,11.66406 -17.410156,17.32031 -0.988281,-5.8125 -2.03125,-11.61328 -3.023438,-17.41796 -12.023437,-0.0703 -24.050781,-0.0156 -36.070312,-0.0273 -2.417969,13.25391 -4.8125,26.50781 -7.222657,39.76953 -7.269531,0 -14.542968,0.004 -21.820312,-0.008 v -1.04687 c 0.789062,-2.46485 1.128906,-5.04297 1.660156,-7.5625 C 12.246094,108.87109 22.765625,55.46875 33.394531,2.09375 m 13.3125,30.429688 c -4.734375,26.515624 -9.5625,53.015624 -14.292969,79.531252 9.691407,0.0195 19.382813,0.0156 29.074219,0.004 C 56.734375,85.015625 51.890625,57.984375 47.15625,30.941406 c -0.171875,0.519532 -0.34375,1.042969 -0.449219,1.582032 z m 0,0"
       id="path4" />
    <path
       style="fill:#002338;fill-opacity:1;fill-rule:nonzero;stroke:none"
       d="m 182.21094,108.92188 c 7.36328,-0.043 14.73047,-0.0156 22.09375,-0.0117 0.0664,8.37109 -0.008,16.74609 0.0352,25.12109 0.0156,3.25781 0.46094,6.54297 1.67578,9.58203 -5.71875,5.75 -11.37109,11.58594 -17.22265,17.19141 -4.8086,-6.35938 -6.48828,-14.48047 -6.5586,-22.31641 -0.0508,-9.85937 -0.004,-19.71484 -0.0234,-29.5664 z m 0,0"
       id="path5" />
  </g>
</svg>
