<?xml version="1.0" encoding="UTF-8" standalone="no"?>
<!-- Generator: Adobe Illustrator 24.1.2, SVG Export Plug-In . SVG Version: 6.00 Build 0)  -->

<svg
   version="1.1"
   id="Слой_1"
   x="0px"
   y="0px"
   viewBox="0 0 500 500"
   style="enable-background:new 0 0 500 500;"
   xml:space="preserve"
   sodipodi:docname="BeMad_Icon.svg"
   inkscape:export-filename="BeMad_Icon.png"
   inkscape:export-xdpi="73.727997"
   inkscape:export-ydpi="73.727997"
   inkscape:version="1.4.3 (1:1.4.3+202512261034+0d15f75042)"
   xmlns:inkscape="http://www.inkscape.org/namespaces/inkscape"
   xmlns:sodipodi="http://sodipodi.sourceforge.net/DTD/sodipodi-0.dtd"
   xmlns="http://www.w3.org/2000/svg"
   xmlns:svg="http://www.w3.org/2000/svg"><defs
   id="defs2" /><sodipodi:namedview
   id="namedview2"
   pagecolor="#ffffff"
   bordercolor="#000000"
   borderopacity="0.25"
   inkscape:showpageshadow="2"
   inkscape:pageopacity="0.0"
   inkscape:pagecheckerboard="0"
   inkscape:deskcolor="#d1d1d1"
   inkscape:zoom="1.698"
   inkscape:cx="250.29446"
   inkscape:cy="250"
   inkscape:window-width="1386"
   inkscape:window-height="836"
   inkscape:window-x="0"
   inkscape:window-y="0"
   inkscape:window-maximized="1"
   inkscape:current-layer="Слой_1" />
<style
   type="text/css"
   id="style1">
	.st0{fill:#2B57A2;}
	.st1{fill:#FFFFFF;}
</style>
<g
   id="Capa_2">
	<g
   id="Layer_1">
		<path
   class="st0"
   d="M250,0C111.9,0,0,111.9,0,250s111.9,250,250,250c138.1,0,250-111.9,250-250v0C500,111.9,388.1,0,250,0"
   id="path1" />
		<path
   class="st1"
   d="M201.4,193.8c0,22.9-18,34.4-43.2,34.4h-53.8c-4.1,0-5.3-1.9-5.3-5.3V114.3c0-3.3,1.1-5.3,5.3-5.3h50.7    c29.5,0,42.3,15.8,42.3,32.8c1.1,10.1-3.9,20-12.8,25c10.5,4.8,17.1,15.5,16.7,27 M172.6,190.7c0-8.5-6.3-11.5-15.1-11.5h-4.1    c-4.1,0-5.3-1.9-5.3-5.3v-13.1c0-3.3,1.1-5.3,5.3-5.3h2.4c10.5,0,15-3.8,15-10.9s-5.6-10.2-15-10.2h-27.6v68.7h30.5    c8.9,0,14-3.7,14-11.5 M306,208.3v14.9c0,3.3-1.1,5.3-5.3,5.3H219c-4.2,0-5.3-1.9-5.3-5.3V113.9c0-3.3,1.1-5.3,5.3-5.3h78.6    c4.2,0,5.3,2.1,5.3,5.3v15.1c0,3.3-1.1,5.3-5.3,5.3h-55v19.9h48.8c4.2,0,5.3,1.9,5.3,5.3v14.2c0,3.3-1,5.3-5.3,5.3h-48.8v24h58.1    c4.2,0,5.3,2.1,5.3,5.3 M206.3,244.5H189c-6,0-6.9,4-8.1,6.2l-25,44.4l-24.7-44.4c-1.5-2.2-2.2-6.2-8.4-6.2h-18.3    c-4.1,0-5.3,1.9-5.3,5.3v108.6c0,4.1,1.9,5.2,5.3,5.2h17.9c3.2,0,5.3-1.1,5.3-5.2v-61.3l18.2,31.6c0.9,1.4,2.3,3.8,5,3.8h9    c2.3-0.3,4.3-1.7,5.3-3.8l18.1-31.6v61.3c0,4.1,1.9,5.2,5.3,5.2h17.3c3.2,0,5.3-1.1,5.3-5.2V249.8c0-3.2-1.1-5.3-5.3-5.3     M290.8,250.3c-1.6-3.8-3.4-5.6-7.4-5.6H266c-3.5-0.2-6.7,2.2-7.4,5.6l-40.1,108.2c-0.9,2.2-0.9,5,3.1,5h18.9c4,0,5.4-1,6.9-5.4    l5-14.3h44.2l5,14.3c1.5,4.4,2.9,5.4,6.9,5.4h19c4,0,4-2.9,3.1-5L290.8,250.3z M261.1,319.1l13.5-40l13.5,40H261.1z M382.7,244.7    h-40.4c-4.1,0-5.3,1.9-5.3,5.3v108.5c0,3.2,1.1,5.3,5.3,5.3h40.4c21.5,0,48.6-12.3,48.6-40.7v-37.6c0-28.2-27-40.7-48.6-40.7     M403,320.5c0.2,9.9-7.6,18-17.5,18.3c-0.9,0-1.9,0-2.8-0.2h-17.3v-68.7h17.3c9.8-1.3,18.9,5.7,20.1,15.5c0.1,0.8,0.2,1.7,0.1,2.6    V320.5z"
   id="path2" />
	</g>
</g>
</svg>
