<?xml version="1.0" encoding="UTF-8" standalone="no"?>
<svg
   viewBox="0 0 63.261001 63.261001"
   version="1.1"
   id="svg3"
   sodipodi:docname="Clan_2026.svg"
   width="63.261002"
   height="63.261002"
   inkscape:version="1.4.3 (1:1.4.3+202512261034+0d15f75042)"
   inkscape:export-filename="Clan_2026.png"
   inkscape:export-xdpi="582.7287"
   inkscape:export-ydpi="582.7287"
   xmlns:inkscape="http://www.inkscape.org/namespaces/inkscape"
   xmlns:sodipodi="http://sodipodi.sourceforge.net/DTD/sodipodi-0.dtd"
   xmlns="http://www.w3.org/2000/svg"
   xmlns:svg="http://www.w3.org/2000/svg">
  <sodipodi:namedview
     id="namedview3"
     pagecolor="#ffffff"
     bordercolor="#000000"
     borderopacity="0.25"
     inkscape:showpageshadow="2"
     inkscape:pageopacity="0.0"
     inkscape:pagecheckerboard="0"
     inkscape:deskcolor="#d1d1d1"
     inkscape:zoom="6.2550877"
     inkscape:cx="47.881023"
     inkscape:cy="25.179503"
     inkscape:window-width="997"
     inkscape:window-height="322"
     inkscape:window-x="26"
     inkscape:window-y="23"
     inkscape:window-maximized="0"
     inkscape:current-layer="svg3" />
  <g
     filter="url(#a)"
     transform="translate(-26.3577,-10.299249)"
     id="g1">
    <path
       d="m 38.4635,37.4607 c -0.2102,-0.0405 -0.4422,-0.0613 -0.6949,-0.0613 -1.2116,0 -2.0743,0.4469 -2.5891,1.3417 -0.5063,0.875 -0.759,2.2714 -0.759,4.1883 0,1.3803 0.1697,2.4599 0.5063,3.2406 0.4941,1.1909 1.4369,1.7868 2.8267,1.7868 0.8411,0 1.7057,-0.1933 2.5892,-0.5837 0.147,-0.0641 0.247,-0.0971 0.2998,-0.0971 0.1273,0 0.2103,0.0547 0.2527,0.1584 l 0.8373,2.1347 c 0.0622,0.1678 0.0942,0.2791 0.0942,0.3328 0,0.3149 -0.4799,0.6148 -1.4369,0.9004 -0.9589,0.2829 -1.9744,0.4253 -3.0483,0.4253 -2.3044,0 -4.0789,-0.7043 -5.3206,-2.1177 -1.2418,-1.4228 -1.8622,-3.4556 -1.8622,-6.1004 0,-3.1718 0.8514,-5.5375 2.5571,-7.097 q 1.9263,-1.7877 4.9416,-1.7877 c 1.5576,0 2.8163,0.2602 3.7724,0.7751 0.2225,0.1159 0.3319,0.3215 0.3319,0.6175 v 3.9346 c 0,0.3046 -0.1518,0.4583 -0.4573,0.4583 H 39.6459 C 39.4252,39.9225 39.2772,39.816 39.2037,39.5935 L 38.4616,37.4598 Z M 44.8138,31.7723 43.424,31.2971 C 43.2033,31.2236 43.0977,31.0727 43.1081,30.838 v -1.2305 c -0.0104,-0.2649 0.0952,-0.4158 0.3159,-0.4592 l 4.8482,-1.0286 c 0.1254,-0.0312 0.231,-0.0472 0.3159,-0.0472 0.2206,0 0.3309,0.1377 0.3309,0.4111 v 16.2796 c 0,1.3078 0.0538,2.0763 0.1584,2.3073 0.1254,0.2734 0.3725,0.4111 0.7421,0.4111 0.1574,0 0.3366,-0.0302 0.5365,-0.0943 0.2112,-0.0736 0.3583,-0.1113 0.4431,-0.1113 0.1367,0 0.231,0.0641 0.2838,0.1914 l 0.8213,2.1177 c 0.0415,0.0943 0.0622,0.1678 0.0622,0.2197 0,0.1065 -0.0896,0.2527 -0.2678,0.4441 -0.5996,0.6515 -1.5538,0.9777 -2.8578,0.9777 -1.7698,0 -2.9474,-0.6477 -3.5377,-1.9432 -0.3253,-0.7279 -0.4893,-2.1601 -0.4893,-4.2986 z m 20.5084,16.3259 1.3898,0.4752 c 0.2102,0.0849 0.3149,0.2357 0.3149,0.4582 v 1.1843 c 0,0.2734 -0.1037,0.4271 -0.3149,0.4582 l -3.8837,0.4111 c -0.2206,0.0217 -0.3479,0.0311 -0.379,0.0311 -0.2009,0 -0.3423,-0.1348 -0.4272,-0.4092 l -0.3149,-1.0928 c -1.1691,1.0117 -2.4364,1.5181 -3.8054,1.5181 -1.5897,0 -2.8267,-0.4941 -3.7102,-1.4841 -0.7798,-0.8646 -1.1692,-2.014 -1.1692,-3.4462 0,-1.9405 0.6789,-3.334 2.0366,-4.1902 0.9278,-0.5666 1.9848,-0.9221 3.1747,-1.0588 0.9362,-0.1037 2.0158,-0.1773 3.2369,-0.2197 v -0.9976 c 0,-0.9692 -0.1782,-1.6264 -0.5365,-1.9743 -0.3376,-0.3065 -0.9052,-0.4583 -1.7057,-0.4583 -0.9363,0 -1.9998,0.2273 -3.1888,0.6789 -0.4535,0.1707 -0.7486,0.2527 -0.8853,0.2527 -0.1368,0 -0.2414,-0.1037 -0.315,-0.3168 l -0.6468,-1.8792 c -0.0641,-0.1914 -0.0962,-0.3215 -0.0962,-0.3969 0,-0.3574 0.7279,-0.7204 2.1781,-1.089 1.1041,-0.2838 2.227,-0.4281 3.3651,-0.4281 2.0828,0 3.5905,0.4752 4.5154,1.4228 0.7788,0.8128 1.1682,2.0658 1.1682,3.763 v 8.7866 z m -3.8526,-1.106 v -3.5716 c -1.716,0.0424 -2.8691,0.2272 -3.4584,0.5535 -0.7157,0.3997 -1.073,1.0805 -1.073,2.0375 0,0.6638 0.2206,1.2239 0.6637,1.6755 0.3895,0.38 0.8628,0.5704 1.42,0.5704 0.7901,0 1.6067,-0.4214 2.4487,-1.2653 z m 22.1368,1.106 1.3898,0.4752 c 0.2206,0.0735 0.3262,0.2272 0.3149,0.4582 v 1.1843 c 0,0.3074 -0.1518,0.4582 -0.4582,0.4582 h -4.8002 c -0.1999,0 -0.3366,-0.0217 -0.4102,-0.0641 -0.0952,-0.0519 -0.1423,-0.215 -0.1423,-0.4893 v -9.9738 c 0,-1.7914 -0.6054,-2.6871 -1.8151,-2.6871 -0.8212,0 -1.7367,0.444 -2.7475,1.3285 v 9.3099 l 1.3889,0.4752 c 0.2206,0.0735 0.3262,0.2272 0.3158,0.4582 v 1.1843 c 0,0.3074 -0.1537,0.4582 -0.4582,0.4582 h -6.5992 c -0.3064,0 -0.4582,-0.1518 -0.4582,-0.4582 v -1.1843 c -0.0104,-0.231 0.0952,-0.3847 0.3158,-0.4582 l 1.3889,-0.4752 V 37.8718 l -1.3889,-0.4724 c -0.2206,-0.0848 -0.3262,-0.2385 -0.3158,-0.4582 v -1.2333 c -0.0104,-0.2621 0.0952,-0.4158 0.3158,-0.4582 l 4.2156,-0.9005 c 0.033,-0.0094 0.0745,-0.017 0.1254,-0.017 0.2537,0 0.4224,0.133 0.5073,0.397 L 74.7,36.1661 c 1.5378,-1.3586 3.1115,-2.0394 4.7219,-2.0394 1.3879,0 2.4251,0.3847 3.1106,1.156 0.7137,0.8108 1.0739,2.1318 1.0739,3.9657 v 8.8507 z"
       fill="#ffffff"
       id="path1" />
  </g>
  <defs
     id="defs3">
    <filter
       id="a"
       x="26.357901"
       y="26.298599"
       width="63.260601"
       height="31.2623"
       filterUnits="userSpaceOnUse"
       color-interpolation-filters="sRGB">
      <feFlood
         flood-opacity="0"
         result="BackgroundImageFix"
         id="feFlood1" />
      <feColorMatrix
         in="SourceAlpha"
         type="matrix"
         values="0 0 0 0 0 0 0 0 0 0 0 0 0 0 0 0 0 0 127 0"
         result="hardAlpha"
         id="feColorMatrix1" />
      <feOffset
         dx=".252906"
         dy="2.27973"
         id="feOffset1" />
      <feGaussianBlur
         stdDeviation="2.02682"
         id="feGaussianBlur1" />
      <feColorMatrix
         type="matrix"
         values="0 0 0 0 0.105882 0 0 0 0 0.105882 0 0 0 0 0.223529 0 0 0 0.7 0"
         id="feColorMatrix2" />
      <feBlend
         mode="normal"
         in2="BackgroundImageFix"
         result="effect1_dropShadow_4400_87135"
         id="feBlend2" />
      <feBlend
         mode="normal"
         in="SourceGraphic"
         in2="effect1_dropShadow_4400_87135"
         result="shape"
         id="feBlend3" />
    </filter>
  </defs>
</svg>
