<?xml version="1.0" encoding="UTF-8" standalone="no"?>
<svg
   width="526pt"
   height="526pt"
   viewBox="0 0 526 526"
   version="1.1"
   id="svg272"
   sodipodi:docname="Cuatro_icon.svg"
   inkscape:version="1.2.2 (b0a8486541, 2022-12-01)"
   inkscape:export-filename="Cuatro_icon.png"
   inkscape:export-xdpi="52.56274"
   inkscape:export-ydpi="52.56274"
   xmlns:inkscape="http://www.inkscape.org/namespaces/inkscape"
   xmlns:sodipodi="http://sodipodi.sourceforge.net/DTD/sodipodi-0.dtd"
   xmlns="http://www.w3.org/2000/svg"
   xmlns:svg="http://www.w3.org/2000/svg">
  <defs
     id="defs276" />
  <sodipodi:namedview
     id="namedview274"
     pagecolor="#ffffff"
     bordercolor="#000000"
     borderopacity="0.25"
     inkscape:showpageshadow="2"
     inkscape:pageopacity="0.0"
     inkscape:pagecheckerboard="0"
     inkscape:deskcolor="#d1d1d1"
     inkscape:document-units="pt"
     showgrid="false"
     inkscape:zoom="0.33843212"
     inkscape:cx="-357.53107"
     inkscape:cy="350.14407"
     inkscape:window-width="1920"
     inkscape:window-height="1043"
     inkscape:window-x="0"
     inkscape:window-y="0"
     inkscape:window-maximized="1"
     inkscape:current-layer="svg272" />
  <g
     id="g284"
     transform="translate(0.30744162,2.2745522)">
    <path
       fill="#ffffff"
       opacity="1"
       d="m 368.38,124.43 c 17.94,-1.98 35.93,10.34 40.92,27.59 3.5,11.86 1.62,25.43 -5.97,35.34 -9.68,13.77 -28.91,19.46 -44.66,13.79 -12.74,-4.45 -22.85,-15.88 -25.53,-29.13 -1.45,-8.34 -0.9,-17.26 2.84,-24.96 5.83,-12.5 18.46,-21.88 32.4,-22.63 z"
       id="path264" />
    <path
       fill="#ffffff"
       opacity="1"
       d="m 205.54,168.81 c 25.84,-3.35 52.83,2.73 74.65,17 22.05,14.27 38.78,36.61 45.97,61.9 6.25,21.91 5.51,45.74 -2,67.25 -10.36,29.41 -33.79,53.92 -62.75,65.5 -23.11,9.35 -49.39,10.54 -73.28,3.49 -23.58,-7.04 -44.83,-22 -58.91,-42.24 -14.24,-20.14 -21.52,-45.13 -19.99,-69.78 1.46,-26.96 13.31,-53.23 32.68,-72.07 17.13,-16.82 39.75,-28.12 63.63,-31.05 z"
       id="path266" />
    <path
       fill="#ff2c10"
       opacity="1"
       d="m 255.35,2.55 c 38.37,-1.17 76.98,6.31 112.04,21.98 52.5,23.34 96.83,64.63 123.63,115.47 19.51,36.45 29.81,77.71 30.1,119.03 0.34,42.38 -10.06,84.79 -29.94,122.21 -13.8,25.9 -31.95,49.49 -53.51,69.4 -26.83,24.87 -59.07,43.82 -93.77,55.35 -40.19,13.46 -83.72,16.36 -125.46,9.31 C 177.95,508.36 139.23,491.38 106.58,466.47 58.96,430.32 24.22,377.44 10.9,319.08 1.09,277.05 2.21,232.55 13.83,191 28.41,138.93 59.96,91.89 102.33,58.33 145.53,23.91 200.09,3.84 255.35,2.55 m 113.03,121.88 c -13.94,0.75 -26.57,10.13 -32.4,22.63 -3.74,7.7 -4.29,16.62 -2.84,24.96 2.68,13.25 12.79,24.68 25.53,29.13 15.75,5.67 34.98,-0.02 44.66,-13.79 7.59,-9.91 9.47,-23.48 5.97,-35.34 -4.99,-17.25 -22.98,-29.57 -40.92,-27.59 m -162.84,44.38 c -23.88,2.93 -46.5,14.23 -63.63,31.05 -19.37,18.84 -31.22,45.11 -32.68,72.07 -1.53,24.65 5.75,49.64 19.99,69.78 14.08,20.24 35.33,35.2 58.91,42.24 23.89,7.05 50.17,5.86 73.28,-3.49 28.96,-11.58 52.39,-36.09 62.75,-65.5 7.51,-21.51 8.25,-45.34 2,-67.25 -7.19,-25.29 -23.92,-47.63 -45.97,-61.9 -21.82,-14.27 -48.81,-20.35 -74.65,-17 z"
       id="path269" />
  </g>
</svg>
