<?xml version="1.0" encoding="utf-8"?>
<!-- Generator: Adobe Illustrator 23.0.3, SVG Export Plug-In . SVG Version: 6.00 Build 0)  -->
<svg version="1.1"
	 id="svg2" xmlns:cc="http://creativecommons.org/ns#" xmlns:dc="http://purl.org/dc/elements/1.1/" xmlns:inkscape="http://www.inkscape.org/namespaces/inkscape" xmlns:rdf="http://www.w3.org/1999/02/22-rdf-syntax-ns#" xmlns:sodipodi="http://sodipodi.sourceforge.net/DTD/sodipodi-0.dtd" xmlns:svg="http://www.w3.org/2000/svg"
	 xmlns="http://www.w3.org/2000/svg" xmlns:xlink="http://www.w3.org/1999/xlink" x="0px" y="0px" viewBox="0 0 869.1 280.8"
	 style="enable-background:new 0 0 869.1 280.8;" xml:space="preserve">
<style type="text/css">
	.st0{fill:#EF2A1F;}
</style>
<g>
	<path class="st0" d="M166.4,166.9c1.2-6.6-5.8-11.4-11.6-8.2L43.7,219.8C33,225.7,29,239.1,35,250l0,0c6.2,11.1,20.6,14.6,31.2,7.5
		l83.2-56.7c7.8-5.3,13.1-13.6,14.8-22.9L166.4,166.9z"/>
	<path class="st0" d="M116.4,144.6l-5.2-4.6c-7.6-6.9-18.6-9-28.2-5.2l-69.2,26.4c-12.2,4.6-17.4,18.9-11.1,30.3l0,0
		c5.2,9.3,16.9,13,26.4,7.9l86-44.7C119,152.9,119.6,147.5,116.4,144.6z"/>
	<circle class="st0" cx="109.8" cy="56.5" r="17.4"/>
	<path class="st0" d="M179.6,29.7c-4-2.7-5.3-7.8-3.2-12L182.7,5c1.4-2.7-1.2-5.6-4.1-4.9L129,14.6c-6.6,2-7.6,10.8-1.7,14.2
		c38,21.9,101.1,66.8,101.1,121.3c0,37.7-27.7,67.5-56.2,88.3c-10.8,7.8-12.3,23.3-3.4,33.2l0,0c11.1,12.2,30.5,12.3,41.5,0
		c22.4-24.7,47.9-63.7,47.9-114C258,94.9,219,56.5,179.6,29.7z"/>
</g>
<g>
	<path class="st0" d="M330.5,91.6c1-11.7,7.9-18.4,18.4-18.4c10.2,0,17.4,6.9,18.4,18.4H330.5z M346.9,57.5
		c-26.1,0-44.7,18.2-44.7,43.9c0,26.6,19.2,43.7,49,43.7c6.7,0,22.6,0,37.8-11.1v-16.7c-12.5,9-20.7,12.1-31.4,12.1
		c-16.7,0-27-9-27.8-24h60.7C391.9,74.8,371.6,57.5,346.9,57.5"/>
	<path class="st0" d="M427.1,145c15.3,0,24.5-9.5,28.2-14.5v1.1c0,7.4,6,13.3,13.3,13.3l0,0c7.4,0,13.3-6,13.3-13.3V70.8
		c0-7.4-6-13.3-13.3-13.3l0,0c-7.4,0-13.3,6-13.3,13.3v41.6c-5.6,10-11.5,14.7-18.9,14.7s-13.7-5.5-13.7-16.9V70.8
		c0-7.4-6-13.3-13.3-13.3c-7.4,0-13.3,6-13.3,13.3v43.8C396.1,128.3,406.3,145,427.1,145z"/>
	<path class="st0" d="M542,94.5l-18.2-8c-5.8-2.4-8.6-4.1-8.6-7.8s4.1-5.5,10-5.5c8.4,0,18.4,4,27.8,8.6V63.1
		c-5.8-2.6-15.3-5.6-28.1-5.6c-22.6,0-34.4,11-34.4,26.3c0,12.2,10.2,18.8,16.9,22.2l16.6,7.3c5.8,2.4,8.6,3.9,8.6,7.6
		c0,3.7-6.5,6.1-12.3,6.1c-10.1,0-19.4-3.3-27.9-7.7v18.9c5.4,2.7,15.9,6.9,30.8,6.9c22.6,0,34.5-12.2,34.5-27.3
		C557.3,105.3,548.7,98,542,94.5z"/>
	<path class="st0" d="M643.7,123.8L625,100.6l18.1-22.9c6.5-8.1,0.8-20.5-9.5-20.5c-4.2,0-8.1,1.9-10.7,5.2l-30,38.3h-0.4V27.4
		c0-7.6-6.2-13.8-13.8-13.8l0,0c-7.6,0-13.8,6.2-13.8,13.8v103.8c0,7.6,6.2,13.8,13.8,13.8l0,0c7.6,0,13.8-6.2,13.8-13.8v-29.4h0.4
		l30.1,38.1c2.6,3.3,6.5,5.2,10.6,5.2l0,0C644.5,145,650.6,132.3,643.7,123.8z"/>
	<path class="st0" d="M726.1,122.2V83.4c0-15.5-9.4-25.9-35.8-25.9c-16.4,0-29.1,5.3-36.5,9.3v22.7c7.9-6.8,19.1-14.4,30.6-14.4
		c12.6,0,15,7,15,13.9L671,98.3c-15.6,6.7-22.2,12.4-22.2,25.6s11.9,21.1,24.4,21.1c11.5,0,20.3-4.7,27.3-9.6c1.6,6,5.4,9.6,14,9.6
		c8.1,0,19.2-4.2,26.3-7.1v-15.8c-3.6,2.7-7.3,4.8-10.4,4.8C727.6,127,726.1,125.5,726.1,122.2z M699.4,122.9
		c-3.9,3.4-8.7,6.1-14.6,6.1c-5.8,0-8.7-4.8-8.7-8.7c0-3.9,1.9-8.3,8-11l15.2-7V122.9z"/>
	<path class="st0" d="M568.8,256.2v-38.9c0-15.5-9.4-25.9-35.8-25.9c-16.4,0-29.1,5.3-36.5,9.3v22.7c7.9-6.8,19.1-14.4,30.6-14.4
		c12.6,0,15,7,15,13.9l-28.4,9.4c-15.6,6.7-22.2,12.4-22.2,25.6c0,13.2,11.9,21.1,24.4,21.1c11.5,0,20.3-4.7,27.3-9.6
		c1.6,6,5.4,9.6,14,9.6c8.1,0,19.2-4.2,26.3-7.1v-15.8c-3.6,2.7-7.3,4.8-10.4,4.8C570.3,261,568.8,259.5,568.8,256.2z M542,256.9
		c-3.9,3.4-8.7,6.1-14.6,6.1c-5.8,0-8.7-4.8-8.7-8.7s1.9-8.3,8-11l15.2-7V256.9z"/>
	<path class="st0" d="M785.8,127c-12.6,0-20.7-9.8-20.6-27.3c0-18,9.8-25.7,21-25.7c4.9,0,8.8,1.4,14.5,5.3v41.2
		C795.4,124.9,791,127,785.8,127 M779.7,56.1c-24.8,0-41.9,18.2-41.8,44c0,26.3,16.5,44.7,40,44.7c8.5,0,16.5-2.8,23.9-8.1v-0.2
		c2.1,5.2,6.9,8.6,12.6,8.6c7.5,0,13.5-6,13.5-13.5V27.4c0-7.7-6-13.7-13.5-13.7s-13.5,6.2-13.5,13.7v34.7
		C793,57.6,787.6,56.1,779.7,56.1"/>
	<g>
		<path class="st0" d="M853.5,57.5c-7.5,0-13.5,6.1-13.5,13.5v60.4c0,7.5,6.1,13.5,13.5,13.5s13.5-6.1,13.5-13.5V71.1
			C867.1,63.6,861,57.5,853.5,57.5z"/>
		
			<ellipse transform="matrix(0.3827 -0.9239 0.9239 0.3827 496.2911 809.0054)" class="st0" cx="853.5" cy="33.1" rx="15.5" ry="15.5"/>
	</g>
	<g>
		<path class="st0" d="M321.5,191.5c-7.5,0-13.5,6.1-13.5,13.5v60.4c0,7.5,6.1,13.5,13.5,13.5s13.5-6.1,13.5-13.5v-60.4
			C335.1,197.6,329,191.5,321.5,191.5z"/>
		
			<ellipse transform="matrix(0.3827 -0.9239 0.9239 0.3827 44.0787 400.2219)" class="st0" cx="321.5" cy="167.1" rx="15.5" ry="15.5"/>
	</g>
	<path class="st0" d="M761.3,256.2v-38.9c0-15.5-9.4-25.9-35.8-25.9c-16.4,0-29.1,5.3-36.5,9.3v22.7c7.9-6.8,19.1-14.4,30.6-14.4
		c12.6,0,15,7,15,13.9l-28.4,9.4c-15.6,6.7-22.2,12.4-22.2,25.6c0,13.2,11.9,21.1,24.4,21.1c11.5,0,20.3-4.7,27.3-9.6
		c1.6,6,5.4,9.6,14,9.6c8.1,0,19.2-4.2,26.3-7.1v-15.8c-3.6,2.7-7.3,4.8-10.4,4.8C762.8,261,761.3,259.5,761.3,256.2z M734.6,256.9
		c-3.9,3.4-8.7,6.1-14.6,6.1c-5.8,0-8.7-4.8-8.7-8.7s1.9-8.3,8-11l15.2-7V256.9z"/>
	<g>
		<path class="st0" d="M664.1,191.5c-7.5,0-13.5,6.1-13.5,13.5v60.4c0,7.5,6.1,13.5,13.5,13.5s13.5-6.1,13.5-13.5v-60.4
			C677.6,197.6,671.6,191.5,664.1,191.5z"/>
		
			<ellipse transform="matrix(0.3827 -0.9239 0.9239 0.3827 255.5385 716.6938)" class="st0" cx="664.1" cy="167.1" rx="15.5" ry="15.5"/>
	</g>
	<path class="st0" d="M402.2,191.6c-15.3,0-23.3,14.5-28.2,21.5V205c0-7.4-6-13.3-13.3-13.3c-7.4,0-13.3,6-13.3,13.3v60.7
		c0,7.4,6,13.3,13.3,13.3c7.4,0,13.3-6,13.3-13.3v-21.6c0-12.7,12.3-23.8,22.1-23.8c5.6,0,12,1.6,16.6,5L421,200
		C415.2,195,408.3,191.6,402.2,191.6z"/>
	<path class="st0" d="M475.8,191.6c-15.3,0-23.3,14.5-28.2,21.5V205c0-7.4-6-13.3-13.3-13.3c-7.4,0-13.3,6-13.3,13.3v60.7
		c0,7.4,6,13.3,13.3,13.3c7.4,0,13.3-6,13.3-13.3v-21.6c0-12.7,12.3-23.8,22.1-23.8c5.6,0,12,1.6,16.6,5l8.2-25.3
		C488.8,195,481.9,191.6,475.8,191.6z"/>
	<path class="st0" d="M612.8,164.3h-3.3l-36.2,40.3v5.2h12.3v37c0,24,15.5,32.2,33.4,32.2c8.4,0,15.5-1.5,25.1-5.4v-19.7
		c-7.3,3.8-12.5,5-18.2,5c-8.4,0-13.2-5.4-13.2-13.8v-35.5h31.4v-18.3h-31.4L612.8,164.3L612.8,164.3z"/>
</g>
</svg>
