<?xml version="1.0" encoding="UTF-8" standalone="no"?>
<svg
   viewBox="0 0 54.194 54.193999"
   version="1.1"
   id="svg220"
   sodipodi:docname="La_2_2026.svg"
   width="54.194"
   height="54.194"
   inkscape:version="1.2.2 (b0a8486541, 2022-12-01)"
   inkscape:export-filename="La_2_2026.png"
   inkscape:export-xdpi="680.2229"
   inkscape:export-ydpi="680.2229"
   xmlns:inkscape="http://www.inkscape.org/namespaces/inkscape"
   xmlns:sodipodi="http://sodipodi.sourceforge.net/DTD/sodipodi-0.dtd"
   xmlns="http://www.w3.org/2000/svg"
   xmlns:svg="http://www.w3.org/2000/svg">
  <sodipodi:namedview
     id="namedview222"
     pagecolor="#ffffff"
     bordercolor="#000000"
     borderopacity="0.25"
     inkscape:showpageshadow="2"
     inkscape:pageopacity="0.0"
     inkscape:pagecheckerboard="0"
     inkscape:deskcolor="#d1d1d1"
     showgrid="false"
     inkscape:zoom="4.3546934"
     inkscape:cx="-36.512329"
     inkscape:cy="27.212019"
     inkscape:window-width="1920"
     inkscape:window-height="1043"
     inkscape:window-x="0"
     inkscape:window-y="0"
     inkscape:window-maximized="1"
     inkscape:current-layer="svg220" />
  <g
     filter="url(#a)"
     transform="translate(-138.7153,-14.7199)"
     id="g201">
    <path
       d="m 161.038,52.6734 h 15.801 c 0.641,0 0.973,0.3303 0.992,0.9922 v 4.8965 c -0.019,0.6605 -0.351,0.9922 -0.992,0.9922 h -23.042 c -0.662,-0.0209 -0.992,-0.3512 -0.992,-0.9922 v -0.9614 c 0.02,-4.186 0.421,-7.2 1.201,-9.0435 0.942,-2.3828 2.634,-4.6973 5.078,-6.9393 0.941,-0.8612 2.354,-2.0331 4.236,-3.5157 3.806,-3.0447 6.03,-5.1864 6.669,-6.4293 0.442,-0.8821 0.662,-1.8031 0.662,-2.7646 0,-3.1645 -1.692,-4.7475 -5.076,-4.7475 -1.484,0 -2.695,0.4013 -3.637,1.2026 -0.84,0.7204 -1.642,1.9229 -2.402,3.6048 -0.421,0.942 -0.791,1.4116 -1.111,1.4116 -0.141,0 -0.301,-0.0307 -0.481,-0.0906 l -4.386,-1.6526 c -0.421,-0.1603 -0.632,-0.4097 -0.632,-0.7511 0,-1.0813 0.732,-2.7646 2.194,-5.0471 2.363,-3.6647 6.028,-5.4971 10.995,-5.4971 4.968,0 8.332,1.7613 10.336,5.2867 1.079,1.9035 1.621,4.0257 1.621,6.3695 0,2.0427 -0.461,3.9657 -1.382,5.7674 -1.14,2.2239 -3.986,5.068 -8.532,8.5321 -3.263,2.5235 -5.256,4.3768 -5.978,5.5584 -0.681,1.1621 -1.062,2.433 -1.141,3.8153 z"
       fill="#ffffff"
       id="path199" />
  </g>
  <defs
     id="defs218">
    <filter
       id="a"
       x="147.188"
       y="14.7197"
       width="37.2486"
       height="54.194401"
       filterUnits="userSpaceOnUse"
       color-interpolation-filters="sRGB">
      <feFlood
         flood-opacity="0"
         result="BackgroundImageFix"
         id="feFlood203" />
      <feColorMatrix
         in="SourceAlpha"
         type="matrix"
         values="0 0 0 0 0 0 0 0 0 0 0 0 0 0 0 0 0 0 127 0"
         result="hardAlpha"
         id="feColorMatrix205" />
      <feOffset
         dx=".373762"
         dy="3.36914"
         id="feOffset207" />
      <feGaussianBlur
         stdDeviation="2.99538"
         id="feGaussianBlur209" />
      <feColorMatrix
         type="matrix"
         values="0 0 0 0 0.0117647 0 0 0 0 0.192157 0 0 0 0 0.270588 0 0 0 0.7 0"
         id="feColorMatrix211" />
      <feBlend
         mode="normal"
         in2="BackgroundImageFix"
         result="effect1_dropShadow_4400_87186"
         id="feBlend213" />
      <feBlend
         mode="normal"
         in="SourceGraphic"
         in2="effect1_dropShadow_4400_87186"
         result="shape"
         id="feBlend215" />
    </filter>
  </defs>
</svg>
