<?xml version="1.0" encoding="UTF-8" standalone="no"?>
<svg
   data-name="Capa 2"
   viewBox="0 0 1114.1 1114.1"
   version="1.1"
   id="svg346"
   sodipodi:docname="LaSexta_2024.svg"
   width="1114.1"
   height="1114.1"
   inkscape:version="1.2.2 (b0a8486541, 2022-12-01)"
   inkscape:export-filename="LaSexta_2024.png"
   inkscape:export-xdpi="33.088593"
   inkscape:export-ydpi="33.088593"
   xmlns:inkscape="http://www.inkscape.org/namespaces/inkscape"
   xmlns:sodipodi="http://sodipodi.sourceforge.net/DTD/sodipodi-0.dtd"
   xmlns="http://www.w3.org/2000/svg"
   xmlns:svg="http://www.w3.org/2000/svg">
  <defs
     id="defs350" />
  <sodipodi:namedview
     id="namedview348"
     pagecolor="#ffffff"
     bordercolor="#000000"
     borderopacity="0.25"
     inkscape:showpageshadow="2"
     inkscape:pageopacity="0.0"
     inkscape:pagecheckerboard="0"
     inkscape:deskcolor="#d1d1d1"
     showgrid="false"
     inkscape:zoom="0.21183018"
     inkscape:cx="-684.51058"
     inkscape:cy="559.41037"
     inkscape:window-width="1920"
     inkscape:window-height="1043"
     inkscape:window-x="0"
     inkscape:window-y="0"
     inkscape:window-maximized="1"
     inkscape:current-layer="svg346" />
  <g
     data-name="Capa 1"
     id="g344"
     transform="translate(107.09499,-0.00501221)">
    <path
       d="M 637.28,182.06 H 512.26 L 617.13,0 H 367.46 L 75.25,507.33 262.59,832.64 H 637.28 L 824.62,507.33 Z M 512.3,615.66 H 387.53 L 325.16,507.33 387.53,399 H 512.3 l 62.37,108.33 z"
       style="fill:#0ad27d;stroke-width:0"
       id="path340" />
    <path
       d="m 0,933.31 h 35 v 178.61 H 0 Z m 55.49,115.39 c 0,-39.83 29.71,-65.66 62.74,-65.66 16.41,0 32.12,6.75 39.33,16.16 v -14 h 35 v 101.86 l 8.71,24.87 h -39.33 l -4.33,-14 c -7.25,9.42 -22.92,16.16 -39.33,16.16 -33.08,0 -62.79,-24.12 -62.79,-65.41 z m 69.04,32.58 c 19.29,0 33.29,-14.25 33.29,-32.58 0,-18.33 -14,-32.58 -33.29,-32.58 -19.29,0 -33.29,14.25 -33.29,32.58 0,18.33 13.5,32.58 33.29,32.58 m 191.85,-17.88 c 0,-6.5 -4.83,-11.58 -16.16,-14.25 l -28.96,-7 c -26.79,-6.5 -47.29,-21 -47.29,-49.95 0,-31.87 27.5,-51.41 62.99,-51.41 37.66,0 57.45,20.04 64.7,40.08 l -32.83,15.91 c -2.67,-10.37 -12.08,-22.46 -31.87,-22.46 -17.87,0 -26.08,8.21 -26.08,16.92 0,7.5 6.04,11.83 15.46,14 l 34.75,8.46 c 27.75,6.75 42.7,23.91 42.7,47.54 0,26.79 -20.75,52.87 -70.24,52.87 -39.33,0 -60.83,-22.21 -68.08,-40.54 l 30.91,-17.87 c 4.83,13.75 21,23.16 38.37,23.16 24.87,-0.04 31.62,-8 31.62,-15.46 z m 51.87,-14.7 c 0,-36.7 27.5,-65.66 67.33,-65.66 42.25,0 64.7,32.58 64.7,65.66 v 12.79 H 404 c 4.58,14.96 16.87,21.96 31.62,21.96 19.29,0 29.71,-10.62 32.83,-17.12 l 26.54,15.91 c -4.83,10.87 -23.41,31.87 -59.37,31.87 -43,0 -67.37,-29.2 -67.37,-65.41 m 95.58,-14.71 c -0.96,-7.5 -9.17,-21 -28.71,-21 -12.54,0 -25.33,6.75 -30.41,21 z m 79.41,12.21 -35.5,-61.08 h 39.58 l 26.09,48.49 26.08,-48.49 h 39.58 l -35.5,61.08 36.92,65.66 h -39.33 l -27.75,-52.87 -27.76,52.87 h -39.33 l 36.91,-65.66 z m 127.15,-28.4 h -22.7 v -32.58 h 23.41 v -29.66 h 34.29 v 29.66 h 33.78 v 32.58 h -33.78 v 60.33 h 34.28 v 33.79 h -69.28 z m 83.74,30.9 c 0,-39.83 29.66,-65.66 62.74,-65.66 16.41,0 32.12,6.75 39.34,16.16 v -14 h 34.99 v 101.86 l 8.71,24.87 h -39.33 l -4.33,-14 c -7.25,9.42 -22.91,16.16 -39.34,16.16 -33.08,0 -62.78,-24.12 -62.78,-65.41 z m 69.04,32.58 c 19.29,0 33.28,-14.25 33.28,-32.58 0,-18.33 -13.99,-32.58 -33.28,-32.58 -19.29,0 -33.29,14.25 -33.29,32.58 0,18.33 13.5,32.58 33.29,32.58"
       style="fill:#0a001e;stroke-width:0"
       id="path342" />
  </g>
</svg>
