<?xml version="1.0" encoding="UTF-8" standalone="no"?>
<svg
   xmlns:dc="http://purl.org/dc/elements/1.1/"
   xmlns:cc="http://creativecommons.org/ns#"
   xmlns:rdf="http://www.w3.org/1999/02/22-rdf-syntax-ns#"
   xmlns:svg="http://www.w3.org/2000/svg"
   xmlns="http://www.w3.org/2000/svg"
   xmlns:sodipodi="http://sodipodi.sourceforge.net/DTD/sodipodi-0.dtd"
   xmlns:inkscape="http://www.inkscape.org/namespaces/inkscape"
   width="580"
   height="440"
   viewBox="0 0 580 440"
   version="1.1"
   id="svg8"
   sodipodi:docname="RockFM Logo.svg"
   inkscape:version="0.92.4 (5da689c313, 2019-01-14)">
  <metadata
     id="metadata14">
    <rdf:RDF>
      <cc:Work
         rdf:about="">
        <dc:format>image/svg+xml</dc:format>
        <dc:type
           rdf:resource="http://purl.org/dc/dcmitype/StillImage" />
        <dc:title></dc:title>
      </cc:Work>
    </rdf:RDF>
  </metadata>
  <defs
     id="defs12" />
  <sodipodi:namedview
     pagecolor="#ffffff"
     bordercolor="#666666"
     borderopacity="1"
     objecttolerance="10"
     gridtolerance="10"
     guidetolerance="10"
     inkscape:pageopacity="0"
     inkscape:pageshadow="2"
     inkscape:window-width="1920"
     inkscape:window-height="1017"
     id="namedview10"
     showgrid="false"
     inkscape:zoom="1"
     inkscape:cx="345.10578"
     inkscape:cy="189.00324"
     inkscape:window-x="-8"
     inkscape:window-y="-8"
     inkscape:window-maximized="1"
     inkscape:current-layer="svg8" />
  <g
     id="g6"
     transform="scale(10)"
     style="fill:none;fill-rule:nonzero;stroke-width:0.1">
    <path
       d="m 54.195,23.198 a 26.07,26.07 0 0 0 0.268,-3.738 c 0,-0.334 -0.007,-0.675 -0.023,-1.008 L 38.603,30.117 c 0.038,0.349 0.061,0.698 0.061,1.055 0,5.196 -4.164,9.408 -9.303,9.408 -5.138,0 -9.303,-4.212 -9.303,-9.408 0,-0.35 0.023,-0.69 0.054,-1.032 L 4.267,18.467 c -0.015,0.334 -0.023,0.667 -0.023,1 0,1.273 0.092,2.514 0.268,3.74 L 15.05,30.97 c 0.023,0.597 0.085,1.179 0.177,1.753 l -10.37,-7.64 a 25.132,25.132 0 0 0 1.166,3.785 L 16.385,36.5 a 14.29,14.29 0 0 0 1.534,2.583 L 10.8,33.84 c 0.046,0.1 0.085,0.209 0.13,0.31 1.857,4.18 5.684,7.546 10.538,9.33 0.53,0.194 1.074,0.365 1.619,0.52 0.038,-0.016 0.084,-0.031 0.122,-0.047 0.2,-0.077 0.4,-0.147 0.599,-0.217 a 17.056,17.056 0 0 1 5.545,-0.93 c 1.94,0 3.804,0.325 5.545,0.93 0.2,0.07 0.398,0.14 0.598,0.217 0.038,0.016 0.084,0.031 0.123,0.047 0.544,-0.155 1.089,-0.326 1.618,-0.52 4.855,-1.776 8.69,-5.15 10.538,-9.33 0.046,-0.101 0.084,-0.202 0.13,-0.31 l -7.117,5.243 A 14.29,14.29 0 0 0 42.322,36.5 l 10.361,-7.632 a 25.132,25.132 0 0 0 1.166,-3.785 l -10.37,7.64 c 0.093,-0.574 0.154,-1.156 0.177,-1.753 l 10.538,-7.772 z"
       id="path2"
       inkscape:connector-curvature="0"
       style="fill:#d80212;stroke-width:0.01" />
    <path
       d="M 43.48,21.734 C 44.128,16.838 45.558,5.315 46.227,0 h 4.76 l -1.73,10.475 3.93,-5.602 H 58 l -4.776,6.332 0.946,2.692 -4.13,3.026 -1.222,-3.81 -0.877,5.347 -4.46,3.274 z m -2.814,-1.195 c 0.215,-0.015 0.43,-0.039 0.646,-0.054 a 266.15,266.15 0 0 1 1.461,-4.16 c -0.492,0.04 -0.984,0.07 -1.476,0.102 -2.023,0.132 -3.415,-2.476 -3.284,-4.765 0.13,-2.11 1.607,-2.141 2.307,-2.164 1,-0.031 1.992,-0.063 2.992,-0.101 a 280.307,280.307 0 0 0 -0.7,-4.05 l -2.876,0.046 c -4.622,0.054 -6.076,2.948 -6.153,5.998 -0.084,5.183 3.13,9.49 7.083,9.148 z M 19.48,10.81 c -0.061,-0.815 -0.576,-5.75 5.407,-5.711 0.669,0.008 1.338,0.008 2.007,0.015 5.983,0.016 5.79,5.044 5.768,5.867 -0.154,4.857 -2.554,10.498 -6.268,10.405 -3.722,-0.132 -6.46,-5.812 -6.914,-10.576 z m 4.492,0.55 c 0.169,3.213 1.53,5.549 2.284,5.564 0.746,0.016 1.976,-2.273 1.945,-5.509 C 28.186,9.902 27.386,9.281 26.025,9.274 24.656,9.258 23.895,9.855 23.972,11.361 Z M 8.42,10.32 l 8.544,13.191 4.03,2.956 A 9.573,9.573 0 0 1 23.016,24.07 L 14.35,11.593 c 1.923,-1.358 3.607,-3.29 3.33,-6.286 -0.215,-2.343 -1.823,-5.315 -6.66,-5.3 H 0 L 3.453,13.602 8.959,17.637 6.183,4.361 c 0,0 2.122,0.046 3.184,0.093 0.953,0.039 2.453,-0.039 2.645,1.311 0.246,1.901 -2.538,3.632 -3.591,4.555 z m 14.927,20.92 v -1.498 h 0.4 c 0,-1.203 0.484,-2.623 2.33,-2.623 h 0.377 l 0.453,1.544 h -0.354 c -0.892,0 -0.992,0.52 -0.992,1.079 h 1.054 v 1.497 h -1.061 v 4.237 H 23.747 V 31.24 Z m 9.266,-1.498 c 1.546,0 2.03,0.683 2.03,2.204 v 3.538 h -1.76 v -3.267 c -0.016,-0.745 -0.031,-0.9 -0.793,-0.923 H 31.8 v 4.19 h -1.76 v -4.19 h -1.085 v 4.19 H 27.194 V 29.75 h 5.421 v -0.008 z"
       id="path4"
       inkscape:connector-curvature="0"
       style="fill:#003a75;stroke-width:0.01" />
  </g>
</svg>
