<?xml version="1.0" encoding="UTF-8" standalone="no"?>
<svg
   viewBox="0 0 64.139002 64.138998"
   version="1.1"
   id="svg389"
   sodipodi:docname="TDP_2026.svg"
   width="64.139"
   height="64.139"
   inkscape:version="1.2.2 (b0a8486541, 2022-12-01)"
   inkscape:export-filename="TDP_2026.png"
   inkscape:export-xdpi="96"
   inkscape:export-ydpi="96"
   xmlns:inkscape="http://www.inkscape.org/namespaces/inkscape"
   xmlns:sodipodi="http://sodipodi.sourceforge.net/DTD/sodipodi-0.dtd"
   xmlns="http://www.w3.org/2000/svg"
   xmlns:svg="http://www.w3.org/2000/svg">
  <sodipodi:namedview
     id="namedview391"
     pagecolor="#ffffff"
     bordercolor="#000000"
     borderopacity="0.25"
     inkscape:showpageshadow="2"
     inkscape:pageopacity="0.0"
     inkscape:pagecheckerboard="0"
     inkscape:deskcolor="#d1d1d1"
     showgrid="false"
     inkscape:zoom="5.1381083"
     inkscape:cx="-14.596812"
     inkscape:cy="23.062963"
     inkscape:window-width="1920"
     inkscape:window-height="1043"
     inkscape:window-x="0"
     inkscape:window-y="0"
     inkscape:window-maximized="1"
     inkscape:current-layer="svg389" />
  <g
     filter="url(#a)"
     transform="translate(-242.1171,-12.989651)"
     id="g370">
    <path
       d="m 258.099,32.4131 c 0.071,0 0.15,0 0.229,0.0166 0.277,0.0556 0.324,0.2923 0.324,0.5384 v 2.8366 c 0,0.4201 -0.142,0.555 -0.555,0.555 h -3.541 v 9.2458 c 0,0.697 -0.08,1.6319 0.61,2.0591 0.119,0.0722 0.245,0.1195 0.38,0.1586 0.199,0.0473 0.405,0.0627 0.611,0.0627 0.562,0 1.132,-0.11 1.664,-0.2923 0.268,-0.1029 0.68,-0.3491 0.958,-0.3491 0.23,0 0.373,0.174 0.459,0.3645 l 0.991,2.3774 c 0.055,0.142 0.126,0.2852 0.126,0.4355 0,0.5231 -0.705,0.8083 -1.069,1.0213 -1.3,0.7538 -2.805,1.0934 -4.302,1.0934 -0.682,0 -1.362,-0.0627 -2.02,-0.2378 -0.452,-0.1196 -0.896,-0.2852 -1.299,-0.5314 -0.27,-0.1657 -0.524,-0.3645 -0.753,-0.594 -1.26,-1.284 -1.386,-3.1538 -1.386,-4.8567 v -9.9582 h -2.084 c -0.253,0 -0.491,-0.0402 -0.538,-0.3325 -0.017,-0.0722 -0.017,-0.142 -0.017,-0.2225 v -2.8366 c 0,-0.2461 0.04,-0.4828 0.324,-0.5384 0.08,-0.0166 0.151,-0.0166 0.23,-0.0166 h 2.084 v -4.769 c 0,-0.3172 0.056,-0.4828 0.388,-0.555 l 3.843,-0.8237 c 0.126,-0.0236 0.253,-0.0556 0.381,-0.0556 0.324,0 0.42,0.2059 0.42,0.5065 v 5.6957 h 3.542 z"
       fill="#ffffff"
       id="path364" />
    <path
       d="m 279.956,49.4137 c 0.309,0.1029 0.388,0.2296 0.388,0.555 v 1.4579 c 0,0.3006 -0.047,0.5231 -0.388,0.555 l -4.745,0.4994 c -0.142,0.0154 -0.294,0.032 -0.436,0.032 -0.324,0 -0.476,-0.2059 -0.555,-0.4982 l -0.412,-1.3941 c -1.021,0.7763 -2.131,1.4497 -3.383,1.7822 -0.689,0.174 -1.402,0.2379 -2.108,0.2379 -0.816,0 -1.648,-0.0793 -2.416,-0.3645 -1.014,-0.3799 -1.782,-1.1325 -2.408,-2.0035 -1.188,-1.6721 -1.672,-3.7075 -1.838,-5.7193 -0.056,-0.6662 -0.071,-1.3384 -0.071,-2.0047 0,-0.6662 0.024,-1.3774 0.079,-2.0673 0.048,-0.5941 0.119,-1.1964 0.23,-1.7822 0.506,-2.7336 2.067,-5.6968 4.872,-6.6151 0.784,-0.2533 1.608,-0.3409 2.432,-0.3409 0.705,0 1.426,0.0557 2.116,0.245 0.68,0.1822 1.307,0.5065 1.917,0.8639 v -3.9928 l -1.703,-0.5858 c -0.301,-0.1112 -0.388,-0.2378 -0.388,-0.555 v -1.5123 c 0,-0.3172 0.055,-0.484 0.388,-0.555 l 5.933,-1.2757 c 0.119,-0.0237 0.245,-0.0557 0.373,-0.0557 0.316,0 0.427,0.2213 0.427,0.5065 v 24.0039 l 1.696,0.5857 z M 273.23,36.4532 c -0.943,-0.4828 -1.799,-0.7124 -2.861,-0.7124 -0.555,0 -1.14,0.0391 -1.655,0.245 -1.608,0.626 -1.877,2.5585 -2.005,4.0483 -0.032,0.3562 -0.055,0.7042 -0.064,1.0533 -0.023,0.4591 -0.032,0.9112 -0.032,1.362 0,0.4119 0.007,0.8237 0.024,1.2284 0.017,0.3089 0.04,0.6177 0.064,0.9195 0.127,1.4023 0.451,3.3277 1.925,3.9134 0.436,0.174 0.928,0.2213 1.394,0.2213 0.665,0 1.355,-0.1112 1.958,-0.4118 0.467,-0.2461 0.862,-0.5787 1.252,-0.9349 z"
       fill="#ffffff"
       id="path366" />
    <path
       d="m 284.452,36.2709 -1.695,-0.5858 c -0.301,-0.1029 -0.388,-0.2378 -0.388,-0.555 v -1.5135 c 0,-0.316 0.055,-0.4829 0.388,-0.555 l 5.165,-1.1089 c 0.048,-0.0083 0.103,-0.0165 0.159,-0.0165 0.324,0 0.523,0.1739 0.602,0.484 l 0.333,1.1881 c 0.523,-0.4757 1.022,-0.7846 1.672,-1.1018 1.03,-0.5064 2.059,-0.768 3.208,-0.768 0.768,0 1.544,0.103 2.273,0.3326 0.365,0.1195 0.721,0.2769 1.054,0.4757 2.605,1.5052 3.375,4.8317 3.572,7.6127 0.041,0.5787 0.056,1.1645 0.056,1.7431 0,0.6734 -0.024,1.355 -0.071,2.0284 -0.04,0.4591 -0.095,0.9266 -0.159,1.3857 -0.214,1.394 -0.587,2.7561 -1.22,4.0164 -0.428,0.8319 -0.974,1.6 -1.726,2.1633 -0.429,0.3171 -0.912,0.5633 -1.411,0.7372 -0.879,0.3089 -1.822,0.4201 -2.757,0.4201 -0.776,0 -1.568,-0.071 -2.322,-0.2935 -0.594,-0.1822 -1.148,-0.4437 -1.703,-0.7372 v 5.1891 l 1.846,0.6414 c 0.309,0.103 0.388,0.2296 0.388,0.555 v 1.5124 c 0,0.4201 -0.142,0.555 -0.555,0.555 h -8.38 c -0.421,0 -0.555,-0.1349 -0.555,-0.555 v -1.5124 c 0,-0.3242 0.079,-0.452 0.379,-0.555 l 1.847,-0.6414 V 36.2697 Z m 7.779,12.5806 c 0.681,0 1.402,-0.0876 1.988,-0.4745 0.618,-0.4119 0.911,-1.1337 1.109,-1.8225 0.42,-1.4413 0.491,-2.9868 0.491,-4.4755 0,-0.3799 -0.008,-0.7598 -0.024,-1.1491 -0.016,-0.3243 -0.04,-0.6568 -0.063,-0.9822 -0.032,-0.2615 -0.064,-0.5314 -0.103,-0.7917 -0.222,-1.323 -0.738,-2.9466 -2.211,-3.3111 -0.285,-0.0722 -0.579,-0.103 -0.871,-0.103 -1.276,0 -2.163,0.6414 -3.066,1.4651 V 48.1 c 0.918,0.4829 1.695,0.7527 2.749,0.7527 z"
       fill="#ffffff"
       id="path368" />
  </g>
  <defs
     id="defs387">
    <filter
       id="a"
       x="242.117"
       y="22.0935"
       width="64.139198"
       height="45.931301"
       filterUnits="userSpaceOnUse"
       color-interpolation-filters="sRGB">
      <feFlood
         flood-opacity="0"
         result="BackgroundImageFix"
         id="feFlood372" />
      <feColorMatrix
         in="SourceAlpha"
         type="matrix"
         values="0 0 0 0 0 0 0 0 0 0 0 0 0 0 0 0 0 0 127 0"
         result="hardAlpha"
         id="feColorMatrix374" />
      <feOffset
         dx=".317419"
         dy="2.86126"
         id="feOffset376" />
      <feGaussianBlur
         stdDeviation="2.54384"
         id="feGaussianBlur378" />
      <feColorMatrix
         type="matrix"
         values="0 0 0 0 0.223529 0 0 0 0 0.0862745 0 0 0 0 0.054902 0 0 0 0.7 0"
         id="feColorMatrix380" />
      <feBlend
         mode="normal"
         in2="BackgroundImageFix"
         result="effect1_dropShadow_4400_87100"
         id="feBlend382" />
      <feBlend
         mode="normal"
         in="SourceGraphic"
         in2="effect1_dropShadow_4400_87100"
         result="shape"
         id="feBlend384" />
    </filter>
  </defs>
</svg>
