<?xml version="1.0" encoding="UTF-8" standalone="no"?>
<svg
   viewBox="0 0 541.32002 541.32"
   version="1.1"
   id="svg312"
   sodipodi:docname="Telecinco_2024.svg"
   width="541.32001"
   height="541.32001"
   inkscape:version="1.2.2 (b0a8486541, 2022-12-01)"
   inkscape:export-filename="Telecinco_2024.png"
   inkscape:export-xdpi="68.100197"
   inkscape:export-ydpi="68.100197"
   xmlns:inkscape="http://www.inkscape.org/namespaces/inkscape"
   xmlns:sodipodi="http://sodipodi.sourceforge.net/DTD/sodipodi-0.dtd"
   xmlns="http://www.w3.org/2000/svg"
   xmlns:svg="http://www.w3.org/2000/svg">
  <sodipodi:namedview
     id="namedview314"
     pagecolor="#ffffff"
     bordercolor="#000000"
     borderopacity="0.25"
     inkscape:showpageshadow="2"
     inkscape:pageopacity="0.0"
     inkscape:pagecheckerboard="0"
     inkscape:deskcolor="#d1d1d1"
     showgrid="false"
     inkscape:zoom="0.43597132"
     inkscape:cx="-279.83492"
     inkscape:cy="271.80687"
     inkscape:window-width="1920"
     inkscape:window-height="1043"
     inkscape:window-x="0"
     inkscape:window-y="0"
     inkscape:window-maximized="1"
     inkscape:current-layer="svg312" />
  <defs
     id="defs302">
    <style
       id="style300">.cls-1 {
        fill: #23388e;
      }</style>
  </defs>
  <g
     id="g320"
     transform="translate(0.07378658,0.00339729)">
    <path
       class="cls-1"
       d="m 247.64,0.96 c 44.06,-3.73 89.05,3.41 129.65,21.02 64.95,27.78 117.99,82.02 144.29,147.58 17.19,42.13 23.05,88.65 17.65,133.78 -4.62,38.75 -17.94,76.4 -38.53,109.54 -19.13,30.82 -44.49,57.74 -74.07,78.72 -28.78,20.42 -61.58,35.17 -95.99,42.99 -43.43,9.88 -89.29,8.88 -132.21,-3.04 -34.81,-9.62 -67.61,-26.39 -95.87,-48.88 C 72.49,458.83 47.54,428.54 29.94,394.43 9.7,355.35 -0.81,311.2 0.05,267.18 0.34,203.3 24.99,140.09 67.24,92.28 102.69,51.73 150.49,22.07 202.67,8.63 217.41,4.8 232.47,2.24 247.64,0.96 Z m -2,19.04 C 197.9,24.64 151.71,43.5 114.23,73.42 87.2,94.89 64.59,121.93 48.33,152.39 20.76,203.43 12.05,264.2 23.75,320.98 c 7.72,37.86 24.4,73.84 48.22,104.27 23.21,29.8 53.18,54.31 87.01,71.13 35.52,17.72 75.32,26.74 115.01,26.16 35.41,-0.47 70.7,-8.54 102.77,-23.59 32.77,-15.34 62.18,-37.81 85.59,-65.4 22.3,-26.15 39.21,-56.88 49.21,-89.76 13.69,-44.75 14.43,-93.35 2.21,-138.52 C 504.15,169.5 486.4,135.96 462.36,107.78 437.84,78.88 406.73,55.58 372.07,40.22 332.62,22.69 288.59,15.65 245.64,20 Z"
       id="path304" />
    <path
       class="cls-1"
       d="m 233.09,142.15 c 8.11,-3.76 17.19,-4.4 26,-4.5 36.13,0.05 72.26,-0.06 108.38,0.06 -4.54,13.92 -10.71,28.05 -22.2,37.67 -8.85,7.62 -20.6,11.62 -32.24,11.3 -27.99,0.1 -55.99,-0.31 -83.98,0.26 -8.89,0.28 -17.79,0.76 -26.64,1.66 3.36,-8.04 6.52,-16.16 10.01,-24.14 4.2,-9.39 11.03,-18.11 20.67,-22.31 z"
       id="path306" />
    <path
       class="cls-1"
       d="m 194.08,213.21 c 22.55,-1.43 45.23,-2.1 67.78,-0.29 21.07,1.92 42.27,6.39 61.16,16.22 13.95,7.27 26.49,18.02 34.02,32.01 8.69,15.78 10.6,34.61 7.73,52.2 -2.44,15.04 -9.55,29.36 -20.38,40.12 -12.72,13.23 -29.61,21.6 -46.9,27.18 -21.73,6.88 -44.56,9.6 -67.27,10.43 -22.59,0.3 -45.34,0.37 -67.66,-3.57 6.57,-15.27 13.17,-30.52 19.75,-45.79 22.99,2.54 46.34,2.74 69.32,-0.17 15.85,-2.28 32.1,-6.11 45.42,-15.43 6.46,-4.56 11.98,-10.94 14.11,-18.68 3.21,-10.78 -0.5,-23.14 -8.95,-30.52 -9.63,-8.77 -22.58,-12.63 -35.08,-15.18 -25.06,-4.85 -50.73,-3.82 -76.11,-3.53 -5.58,0.2 -11.15,0.47 -16.72,0.73 6.55,-15.26 13.14,-30.5 19.78,-45.73 z"
       id="path308" />
    <path
       class="cls-1"
       d="m 216.57,270.94 c 13.67,-2.88 28.49,4.99 33.88,17.84 4.6,10.63 2.77,23.94 -5.19,32.49 -10.12,11.48 -29.13,13.3 -41.27,3.99 -11.15,-8.05 -14.77,-24.09 -9.36,-36.52 3.74,-9.1 12.25,-16.04 21.94,-17.8 z"
       id="path310" />
  </g>
</svg>
