<svg xmlns="http://www.w3.org/2000/svg" width="97" height="21" viewBox="0 0 97 21">
    <path fill="#10069F" fill-rule="evenodd" d="M68.86 5.24c1.714 0 3.227.707 4.539 2.12l4.206-3.408c-1.15-1.317-2.502-2.305-4.055-2.964C71.996.33 70.434 0 68.86 0c-3.47 0-6.208 1.002-8.215 3.007-2.008 2.005-3.01 4.506-3.01 7.503 0 3.246 1.078 5.795 3.237 7.646 2.158 1.852 4.82 2.778 7.988 2.778 1.815 0 3.48-.358 4.993-1.074 1.512-.716 2.763-1.647 3.752-2.792l-4.206-3.437c-.525.611-1.2 1.108-2.027 1.49a5.94 5.94 0 0 1-2.512.572c-1.574 0-2.83-.5-3.767-1.503-.938-1.003-1.407-2.23-1.407-3.68 0-1.642.509-2.93 1.528-3.866 1.018-.935 2.234-1.403 3.646-1.403zm18.79 10.568v-2.864h6.808V8.219H87.65V5.155h8.715V.315H82.083v20.332H97v-4.84h-9.35zM39.57 5.155h8.715v3.064h-6.809v4.725h6.809v2.864h-9.35v4.84h14.917V.314H39.57v4.84zm-11.862 3.98c-.585.401-1.342.602-2.27.602h-1.754v-4.64h1.755c1.008 0 1.785.22 2.33.659.544.44.817.993.817 1.661 0 .745-.293 1.317-.878 1.718zm3.177 4.44c2.44-1.089 3.662-3.103 3.662-6.043 0-2.196-.656-3.947-1.967-5.255C31.268.969 29.312.315 26.71.315h-8.594v20.332h5.568v-6.214h1.331l4.055 6.214h6.687l-4.872-7.044v-.029zM0 5.154h6.414v15.492h5.72V5.155h.004V.315H0v4.84z"/>
</svg>
